#define berge_width 64
#define berge_height 15
static unsigned char berge_bits[] = {
   0x00, 0x00, 0x00, 0x00, 0x00, 0x00, 0x00, 0x00, 0x00, 0x00, 0x10, 0x00,
   0x00, 0x20, 0x00, 0x00, 0x00, 0x00, 0x38, 0x02, 0x00, 0x60, 0x00, 0x00,
   0x00, 0x00, 0xcc, 0x07, 0x00, 0xd0, 0x00, 0x00, 0x00, 0x00, 0x9b, 0x0c,
   0x00, 0xe8, 0x01, 0x00, 0x80, 0x80, 0x88, 0x18, 0x00, 0x24, 0x43, 0x00,
   0xc0, 0x71, 0x08, 0x70, 0x10, 0x22, 0xe4, 0x00, 0xe0, 0x19, 0x3c, 0xc0,
   0x38, 0x21, 0xdc, 0x09, 0x3c, 0x06, 0x32, 0x80, 0xf7, 0x18, 0x8c, 0x3e,
   0x1a, 0x00, 0x20, 0x00, 0x42, 0x10, 0x84, 0x60, 0x09, 0x00, 0x20, 0x00,
   0x00, 0x20, 0xc0, 0x00, 0x08, 0x00, 0x60, 0x00, 0x00, 0x40, 0x00, 0x00,
   0x00, 0x00, 0xc0, 0x00, 0x00, 0x00, 0x00, 0x00, 0x00, 0x00, 0x00, 0x01,
   0x00, 0x00, 0x00, 0x00, 0x00, 0x00, 0x00, 0x00, 0x00, 0x00, 0x00, 0x00 };
