#define VWBulli_width 75
#define VWBulli_height 64
static unsigned char VWBulli_bits[] = {
   0x00, 0x00, 0x00, 0x00, 0xf8, 0x0f, 0x00, 0x00, 0x00, 0x00, 0x00, 0x00,
   0x00, 0xf0, 0x07, 0x00, 0x00, 0x00, 0x00, 0x00, 0x00, 0x00, 0x00, 0x0f,
   0x00, 0x00, 0x00, 0x00, 0x00, 0x00, 0x00, 0x00, 0xc0, 0xf8, 0x3f, 0x00,
   0x00, 0x00, 0x00, 0x00, 0x00, 0x00, 0xe0, 0x07, 0xc0, 0x07, 0x00, 0x00,
   0x00, 0x00, 0x00, 0x00, 0x40, 0x02, 0x00, 0x00, 0x00, 0x00, 0x00, 0x00,
   0x00, 0x00, 0x20, 0x01, 0x00, 0x00, 0x00, 0x00, 0x00, 0x00, 0x00, 0x00,
   0x90, 0x00, 0x00, 0x00, 0x00, 0x00, 0x00, 0x00, 0x00, 0x00, 0x48, 0x00,
   0x00, 0x08, 0x00, 0x00, 0x00, 0x00, 0x00, 0x00, 0x64, 0x00, 0x00, 0x04,
   0x00, 0x00, 0x00, 0x00, 0x00, 0x00, 0x22, 0x00, 0x00, 0x00, 0x00, 0x00,
   0x00, 0x00, 0x00, 0x00, 0x31, 0x00, 0x00, 0x00, 0x00, 0x00, 0x00, 0x00,
   0x00, 0x80, 0x10, 0x00, 0x00, 0x02, 0x00, 0x00, 0x00, 0x00, 0x00, 0x80,
   0x18, 0x00, 0x00, 0x02, 0x00, 0x00, 0x00, 0x00, 0x00, 0x40, 0x08, 0x00,
   0x00, 0x00, 0x00, 0x00, 0x00, 0x00, 0x00, 0x40, 0x0c, 0x00, 0x00, 0x02,
   0x00, 0x00, 0x00, 0x00, 0x00, 0x20, 0x04, 0x00, 0xc0, 0x02, 0x00, 0x00,
   0x00, 0x00, 0x00, 0x20, 0x06, 0x00, 0x3c, 0xfa, 0xfb, 0x00, 0x00, 0x00,
   0x00, 0x10, 0x02, 0xe0, 0x07, 0x01, 0x00, 0x00, 0x00, 0x00, 0x00, 0x10,
   0xe3, 0x3f, 0x00, 0x31, 0x00, 0x00, 0x00, 0x00, 0x00, 0x08, 0x39, 0x00,
   0x00, 0x09, 0x00, 0x00, 0x00, 0x00, 0x00, 0xf8, 0x0f, 0x00, 0x00, 0x04,
   0x00, 0x00, 0x00, 0x00, 0x00, 0x04, 0x00, 0x00, 0x00, 0x03, 0x00, 0x00,
   0x00, 0x00, 0x00, 0x02, 0x00, 0x00, 0x80, 0x00, 0x00, 0x00, 0x00, 0x00,
   0x00, 0x02, 0x00, 0x00, 0x00, 0x00, 0x00, 0x00, 0x00, 0x00, 0x00, 0x02,
   0x00, 0x00, 0xa0, 0x00, 0x00, 0x00, 0x00, 0x00, 0x00, 0xe2, 0x00, 0x00,
   0x98, 0x00, 0x00, 0x00, 0x00, 0x00, 0x00, 0x91, 0x01, 0x00, 0x86, 0x00,
   0x00, 0x00, 0x00, 0x00, 0x00, 0x01, 0x01, 0x00, 0x81, 0x00, 0x00, 0x00,
   0x00, 0x00, 0x00, 0x01, 0x03, 0xc0, 0x80, 0x00, 0x00, 0x00, 0x00, 0x00,
   0x00, 0x01, 0x02, 0x30, 0x80, 0x00, 0x00, 0x00, 0x00, 0x00, 0x80, 0x00,
   0x02, 0x08, 0x80, 0x00, 0x00, 0x00, 0x00, 0x00, 0xc0, 0x00, 0x02, 0x06,
   0x83, 0x00, 0x00, 0x00, 0x00, 0x00, 0xc0, 0x00, 0x82, 0x03, 0x45, 0x00,
   0x00, 0x00, 0x00, 0x00, 0xc0, 0x00, 0xc3, 0x80, 0x44, 0x00, 0x00, 0x00,
   0x00, 0x00, 0x80, 0x00, 0x61, 0x80, 0x44, 0x00, 0x00, 0x00, 0x00, 0x00,
   0x80, 0x84, 0x31, 0x00, 0x43, 0x00, 0x00, 0x00, 0x00, 0x00, 0x40, 0x84,
   0x18, 0x7c, 0x40, 0x00, 0x00, 0x00, 0x00, 0x00, 0x20, 0xcd, 0x0c, 0xe2,
   0x41, 0x00, 0x00, 0x00, 0x00, 0x00, 0x50, 0x39, 0x84, 0x80, 0x43, 0x00,
   0x00, 0x00, 0x00, 0x00, 0x50, 0x33, 0x86, 0x00, 0x43, 0x00, 0x00, 0x00,
   0x00, 0x00, 0x50, 0x02, 0x42, 0x00, 0x02, 0x00, 0x00, 0x00, 0x00, 0x00,
   0x50, 0x02, 0x43, 0x00, 0x02, 0x00, 0x00, 0x00, 0x00, 0x00, 0x50, 0x02,
   0x41, 0x00, 0x02, 0x00, 0x00, 0x00, 0x00, 0x00, 0x50, 0x86, 0x81, 0x00,
   0x03, 0x00, 0x00, 0x00, 0x00, 0x00, 0x50, 0x84, 0x80, 0x00, 0x01, 0x00,
   0x00, 0xc0, 0x07, 0x00, 0x20, 0x84, 0x00, 0x81, 0x01, 0x00, 0x00, 0x3c,
   0x08, 0x00, 0x40, 0xcc, 0x00, 0xe6, 0x00, 0x00, 0xc0, 0x03, 0x10, 0x00,
   0x40, 0x4c, 0x00, 0x38, 0x00, 0x00, 0x20, 0x00, 0x10, 0x00, 0x40, 0x48,
   0x00, 0x00, 0x00, 0x00, 0x20, 0x00, 0x00, 0x00, 0x40, 0x68, 0x00, 0x00,
   0x00, 0x00, 0x30, 0x08, 0x00, 0x00, 0x40, 0x28, 0x00, 0x00, 0x40, 0x00,
   0x10, 0x18, 0x00, 0x00, 0xe0, 0x28, 0x00, 0x03, 0x40, 0x00, 0x10, 0x08,
   0x00, 0x00, 0xa0, 0x38, 0x80, 0x04, 0x40, 0x00, 0x18, 0x18, 0x00, 0x00,
   0xa0, 0x18, 0x40, 0x04, 0x40, 0x00, 0x08, 0x08, 0x00, 0x00, 0xb0, 0x13,
   0x40, 0x04, 0x40, 0xe0, 0x0b, 0x08, 0x00, 0x00, 0xa8, 0xfc, 0x7f, 0x04,
   0xfc, 0x1f, 0x04, 0x08, 0x00, 0x00, 0xa8, 0x00, 0x40, 0xfc, 0x03, 0x00,
   0x28, 0x30, 0x02, 0x00, 0x68, 0x00, 0x40, 0x04, 0x00, 0x00, 0x28, 0xc0,
   0x01, 0x00, 0x30, 0x00, 0x40, 0x04, 0x00, 0x00, 0x38, 0x00, 0x00, 0x00,
   0xc0, 0x00, 0x40, 0x04, 0x00, 0x00, 0x68, 0x00, 0x00, 0x00, 0x00, 0x3f,
   0x80, 0x06, 0x00, 0x00, 0x47, 0x00, 0x00, 0x00, 0x00, 0xc0, 0xff, 0x03,
   0xc0, 0xff, 0xc0, 0x01, 0x20, 0x00, 0x00, 0x00, 0x00, 0xfe, 0x3f, 0x00,
   0x80, 0x03, 0x18, 0x00 };
