#define VWBulli_width 50
#define VWBulli_height 64
static unsigned char VWBulli_bits[] = {
   0x00, 0x00, 0x00, 0x00, 0xfe, 0x03, 0x00, 0x00, 0x00, 0x00, 0xfc, 0x01,
   0x00, 0x00, 0x00, 0x00, 0xc0, 0x03, 0x00, 0x00, 0x00, 0x00, 0x00, 0x30,
   0xfe, 0x0f, 0x00, 0x00, 0x00, 0x00, 0xf8, 0x01, 0xf0, 0x01, 0x00, 0x00,
   0x00, 0x90, 0x00, 0x00, 0x00, 0x00, 0x00, 0x00, 0x48, 0x00, 0x00, 0x00,
   0x00, 0x00, 0x00, 0x24, 0x00, 0x00, 0x00, 0x00, 0x00, 0x00, 0x12, 0x00,
   0x00, 0x02, 0x00, 0x00, 0x00, 0x19, 0x00, 0x00, 0x01, 0x00, 0x00, 0x80,
   0x08, 0x00, 0x00, 0x00, 0x00, 0x00, 0x40, 0x0c, 0x00, 0x00, 0x00, 0x00,
   0x00, 0x20, 0x04, 0x00, 0x80, 0x00, 0x00, 0x00, 0x20, 0x06, 0x00, 0x80,
   0x00, 0x00, 0x00, 0x10, 0x02, 0x00, 0x00, 0x00, 0x00, 0x00, 0x10, 0x03,
   0x00, 0x80, 0x00, 0x00, 0x00, 0x08, 0x01, 0x00, 0xb0, 0x00, 0x00, 0x00,
   0x88, 0x01, 0x00, 0x8f, 0x0e, 0x00, 0x00, 0x84, 0x00, 0xf8, 0x41, 0x00,
   0x00, 0x00, 0xc4, 0xf8, 0x0f, 0x40, 0x04, 0x00, 0x00, 0x42, 0x0e, 0x00,
   0x40, 0x02, 0x00, 0x00, 0xfe, 0x03, 0x00, 0x00, 0x01, 0x00, 0x00, 0x01,
   0x00, 0x00, 0xc0, 0x00, 0x00, 0x80, 0x00, 0x00, 0x00, 0x20, 0x00, 0x00,
   0x80, 0x00, 0x00, 0x00, 0x00, 0x00, 0x00, 0x80, 0x00, 0x00, 0x00, 0x28,
   0x00, 0x00, 0x80, 0x38, 0x00, 0x00, 0x26, 0x00, 0x00, 0x40, 0x64, 0x00,
   0x80, 0x01, 0x00, 0x00, 0x40, 0x40, 0x00, 0x40, 0x20, 0x00, 0x00, 0x40,
   0xc0, 0x00, 0x30, 0x00, 0x00, 0x00, 0x40, 0x80, 0x00, 0x0c, 0x20, 0x00,
   0x00, 0x20, 0x80, 0x00, 0x02, 0x20, 0x00, 0x00, 0x30, 0x80, 0x80, 0xc1,
   0x00, 0x00, 0x00, 0x30, 0x80, 0xe0, 0x40, 0x01, 0x00, 0x00, 0x30, 0xc0,
   0x30, 0x20, 0x01, 0x00, 0x00, 0x20, 0x40, 0x18, 0x20, 0x01, 0x00, 0x00,
   0x20, 0x61, 0x0c, 0xc0, 0x00, 0x00, 0x00, 0x10, 0x21, 0x06, 0x1f, 0x00,
   0x00, 0x00, 0x48, 0x33, 0x83, 0x78, 0x00, 0x00, 0x00, 0x54, 0x0e, 0x21,
   0xe0, 0x00, 0x00, 0x00, 0xd4, 0x8c, 0x21, 0xc0, 0x00, 0x00, 0x00, 0x94,
   0x80, 0x10, 0x80, 0x00, 0x00, 0x00, 0x94, 0xc0, 0x10, 0x80, 0x00, 0x00,
   0x00, 0x94, 0x40, 0x10, 0x80, 0x00, 0x00, 0x00, 0x94, 0x61, 0x20, 0xc0,
   0x00, 0x00, 0x00, 0x14, 0x21, 0x20, 0x40, 0x00, 0x00, 0x00, 0x08, 0x21,
   0x40, 0x60, 0x00, 0x00, 0x00, 0x10, 0x33, 0x80, 0x39, 0x00, 0x00, 0x00,
   0x10, 0x13, 0x00, 0x0e, 0x00, 0x00, 0x00, 0x10, 0x12, 0x00, 0x00, 0x00,
   0x00, 0x00, 0x10, 0x1a, 0x00, 0x00, 0x00, 0x00, 0x00, 0x10, 0x0a, 0x00,
   0x00, 0x10, 0x00, 0x00, 0x38, 0x0a, 0xc0, 0x00, 0x10, 0x00, 0x00, 0x28,
   0x0e, 0x20, 0x01, 0xd0, 0x00, 0x00, 0x28, 0x06, 0x10, 0x01, 0x50, 0x00,
   0x00, 0xec, 0x04, 0x10, 0x01, 0x50, 0x00, 0x00, 0x2a, 0xff, 0x1f, 0x01,
   0x3f, 0x00, 0x00, 0x2a, 0x00, 0x10, 0xff, 0x40, 0x01, 0x00, 0x1a, 0x00,
   0x10, 0x01, 0x40, 0x01, 0x00, 0x0c, 0x00, 0x10, 0x01, 0xc0, 0x01, 0x00,
   0x30, 0x00, 0x10, 0x01, 0x40, 0x03, 0x00, 0xc0, 0x0f, 0xa0, 0x01, 0x20,
   0x02, 0x00, 0x00, 0xf0, 0xff, 0x00, 0x10, 0x0e, 0x00, 0x00, 0x00, 0x80,
   0xff, 0x0f, 0x1c, 0x00 };
